<?xml version="1.0" encoding="utf-8"?><svg version="1.1" id="Layer_1" xmlns="http://www.w3.org/2000/svg" xmlns:xlink="http://www.w3.org/1999/xlink" x="0px" y="0px" viewBox="0 0 122.88 65.56" style="enable-background:new 0 0 122.88 65.56" xml:space="preserve"><style type="text/css">.st0{fill-rule:evenodd;clip-rule:evenodd;}</style><g><path class="st0" d="M23.18,27.12c-45.02,14.55,26.45,23.6,41.33,23.47v-7.44l11.21,11.2L64.51,65.56v-6.97 C35.25,59.71-36.83,39.27,23.18,24.3V27.12L23.18,27.12z M108.14,8.32c0-2.74,0.49-4.66,1.48-5.75c0.99-1.09,2.49-1.64,4.51-1.64 c0.97,0,1.77,0.12,2.39,0.36c0.62,0.24,1.13,0.55,1.52,0.93c0.4,0.38,0.7,0.79,0.93,1.21c0.23,0.42,0.41,0.92,0.55,1.48 c0.27,1.07,0.4,2.2,0.4,3.37c0,2.62-0.44,4.53-1.33,5.74c-0.88,1.21-2.41,1.82-4.57,1.82c-1.21,0-2.19-0.2-2.94-0.58 c-0.75-0.39-1.36-0.96-1.84-1.7c-0.34-0.53-0.62-1.26-0.81-2.18C108.24,10.45,108.14,9.43,108.14,8.32L108.14,8.32z M112.11,8.32 c0,1.83,0.16,3.09,0.49,3.76c0.33,0.67,0.8,1.01,1.41,1.01c0.41,0,0.76-0.14,1.06-0.43c0.3-0.29,0.52-0.74,0.66-1.35 c0.14-0.62,0.21-1.58,0.21-2.88c0-1.91-0.16-3.2-0.49-3.86c-0.32-0.66-0.81-0.99-1.46-0.99c-0.66,0-1.14,0.34-1.44,1.01 C112.26,5.26,112.11,6.51,112.11,8.32L112.11,8.32z M37.55,0v34.85h-9.62v-22.8c-1.56,1.18-4.5,2.13-5.96,2.86 c-1.46,0.73-3.29,1.43-5.48,2.09l1.44-7.76c3.24-1.05,5.76-2.31,7.55-3.78c1.8-1.48,3.2-3.3,4.21-5.46H37.55L37.55,0z M52.17,16.42 c-1.49-0.79-2.58-1.68-3.26-2.66c-0.93-1.34-1.4-2.88-1.4-4.62c0-2.86,1.35-5.21,4.05-7.04C53.66,0.7,56.44,0,59.91,0 c4.59,0,7.97,0.87,10.16,2.62c2.19,1.74,3.29,3.94,3.29,6.58c0,1.55-0.44,2.98-1.32,4.32c-0.66,1-1.69,1.96-3.1,2.9 c1.85,0.89,3.24,2.07,4.15,3.53c0.92,1.47,1.37,3.09,1.37,4.87c0,1.72-0.39,3.31-1.18,4.8c-0.79,1.49-1.76,2.64-2.9,3.45 c-1.15,0.81-2.58,1.4-4.28,1.79c-1.71,0.38-3.53,0.57-5.47,0.57c-3.63,0-6.4-0.43-8.32-1.28c-1.91-0.86-3.37-2.12-4.36-3.79 c-1-1.67-1.5-3.53-1.5-5.59c0-2.01,0.47-3.71,1.4-5.11C48.79,18.26,50.23,17.19,52.17,16.42L52.17,16.42z M56.46,9.69 c0,1.18,0.38,2.14,1.12,2.86c0.74,0.73,1.73,1.08,2.98,1.08c1.09,0,1.99-0.36,2.7-1.08c0.71-0.72,1.06-1.64,1.06-2.78 c0-1.19-0.37-2.15-1.1-2.89c-0.74-0.74-1.68-1.11-2.82-1.11c-1.16,0-2.11,0.36-2.83,1.08C56.83,7.6,56.46,8.55,56.46,9.69 L56.46,9.69z M55.93,24.44c0,1.52,0.46,2.74,1.38,3.71c0.92,0.96,1.97,1.44,3.15,1.44c1.14,0,2.16-0.49,3.06-1.46 c0.9-0.97,1.36-2.21,1.36-3.71c0-1.52-0.45-2.75-1.36-3.72c-0.92-0.97-1.97-1.45-3.17-1.45c-1.19,0-2.22,0.47-3.1,1.4 C56.37,21.58,55.93,22.85,55.93,24.44L55.93,24.44z M76.94,17.57c0-6.51,1.17-11.07,3.52-13.67C82.81,1.3,86.38,0,91.18,0 c2.31,0,4.2,0.29,5.68,0.85c1.48,0.57,2.69,1.31,3.62,2.22c0.94,0.91,1.67,1.87,2.21,2.87c0.54,1.01,0.97,2.18,1.3,3.52 c0.63,2.55,0.96,5.22,0.96,7.99c0,6.22-1.06,10.76-3.16,13.64c-2.1,2.88-5.72,4.32-10.87,4.32c-2.88,0-5.21-0.46-6.99-1.38 c-1.78-0.92-3.23-2.27-4.37-4.05c-0.82-1.26-1.47-2.98-1.93-5.17C77.17,22.64,76.94,20.22,76.94,17.57L76.94,17.57z M86.37,17.58 c0,4.36,0.38,7.34,1.16,8.94c0.77,1.6,1.89,2.39,3.36,2.39c0.97,0,1.8-0.34,2.51-1.01c0.71-0.68,1.23-1.76,1.56-3.22 c0.34-1.47,0.5-3.75,0.5-6.85c0-4.55-0.38-7.6-1.16-9.18c-0.77-1.56-1.93-2.35-3.47-2.35c-1.58,0-2.71,0.8-3.41,2.39 C86.72,10.31,86.37,13.27,86.37,17.58L86.37,17.58z M107.89,29.33c12.16,5.39,10.25,13.47-9.24,18.29 c-5.3,1.31-11.29,2.5-17.86,2.99v6.05c7.31-0.51,14.1-2.19,20.06-3.63c28.88-7,27.06-19.64,7.88-26.37 C108.49,27.61,108.21,28.5,107.89,29.33L107.89,29.33z"/></g></svg>