<?xml version="1.0" encoding="utf-8"?>
<!-- Generator: Adobe Illustrator 18.0.0, SVG Export Plug-In . SVG Version: 6.00 Build 0)  -->
<!DOCTYPE svg PUBLIC "-//W3C//DTD SVG 1.1//EN" "http://www.w3.org/Graphics/SVG/1.1/DTD/svg11.dtd">
<svg version="1.1" id="Layer_1" xmlns="http://www.w3.org/2000/svg" xmlns:xlink="http://www.w3.org/1999/xlink" x="0px" y="0px"
	 viewBox="0 0 64 64" enable-background="new 0 0 64 64" xml:space="preserve">
<g>
	<g>
		<g>
			<path d="M32.5,63.8c-11,0-20-9-20-20v-24c0-11,9-20,20-20s20,9,20,20v24C52.5,54.8,43.5,63.8,32.5,63.8z M32.5,3.8
				c-8.8,0-16,7.2-16,16v24c0,8.8,7.2,16,16,16s16-7.2,16-16v-24C48.5,10.9,41.3,3.8,32.5,3.8z"/>
		</g>
	</g>
</g>
<g>
	<g>
		<g>
			<path d="M33,27c-1.1,0-2-0.9-2-2V15c0-1.1,0.9-2,2-2s2,0.9,2,2v10C35,26.1,34.1,27,33,27z"/>
		</g>
	</g>
</g>
</svg>
